HIERARCHY
ROOT Hips
{
	OFFSET 0.000000 35.082581 0.000000
	CHANNELS 6 Xposition Yposition Zposition Xrotation Yrotation Zrotation 
	JOINT Spine
	{
		OFFSET 0.000000 6.876099 0.125700
		CHANNELS 3 Xrotation Yrotation Zrotation
		JOINT Spine1
		{
			OFFSET 0.000000 5.730043 0.104720
			CHANNELS 3 Xrotation Yrotation Zrotation
			JOINT Spine1_split
			{
				OFFSET 0.000000 5.730043 0.104720
				CHANNELS 3 Xrotation Yrotation Zrotation
				JOINT Spine2
				{
					OFFSET 0.000000 5.730043 0.104720
					CHANNELS 3 Xrotation Yrotation Zrotation
					JOINT Neck
					{
						OFFSET 0.000000 10.314075 0.188496
						CHANNELS 3 Xrotation Yrotation Zrotation
						JOINT Head
						{
							OFFSET 0.000000 7.643700 -2.377400
							CHANNELS 3 Xrotation Yrotation Zrotation
							JOINT HeadTop_End
							{
								OFFSET 0.000000 43.788605 -13.619600
								CHANNELS 3 Xrotation Yrotation Zrotation
								End Site
								{
									OFFSET 0.000000 0.000000 0.000000
								}
							}
						}
					}
					JOINT LeftShoulder
					{
						OFFSET 2.196100 4.412489 0.087492
						CHANNELS 3 Xrotation Yrotation Zrotation
						JOINT LeftShoulder_split
						{
							OFFSET 2.196100 4.412489 0.087492
							CHANNELS 3 Xrotation Yrotation Zrotation
							JOINT LeftArm
							{
								OFFSET 8.771219 -2.981674 -0.026999
								CHANNELS 3 Xrotation Yrotation Zrotation
								JOINT LeftForeArm
								{
									OFFSET 8.512804 0.000000 -0.000000
									CHANNELS 3 Xrotation Yrotation Zrotation
									JOINT LeftHand
									{
										OFFSET 18.484802 0.000000 -0.000000
										CHANNELS 3 Xrotation Yrotation Zrotation
										JOINT LeftHandThumb1
										{
											OFFSET 2.499420 -1.158070 2.653252
											CHANNELS 3 Xrotation Yrotation Zrotation
											JOINT LeftHandThumb2
											{
												OFFSET 2.370079 -1.368366 1.368366
												CHANNELS 3 Xrotation Yrotation Zrotation
												JOINT LeftHandThumb3
												{
													OFFSET 2.676727 -1.545410 1.545409
													CHANNELS 3 Xrotation Yrotation Zrotation
													JOINT LeftHandThumb4
													{
														OFFSET 1.692226 -0.977005 0.977007
														CHANNELS 3 Xrotation Yrotation Zrotation
														End Site
														{
															OFFSET 0.000000 0.000000 0.000000
														}
													}
												}
											}
										}
										JOINT LeftHandIndex1
										{
											OFFSET 7.924831 -0.457527 2.345128
											CHANNELS 3 Xrotation Yrotation Zrotation
											JOINT LeftHandIndex2
											{
												OFFSET 3.643303 0.000000 0.000000
												CHANNELS 3 Xrotation Yrotation Zrotation
												JOINT LeftHandIndex3
												{
													OFFSET 3.810799 0.000000 0.000000
													CHANNELS 3 Xrotation Yrotation Zrotation
													JOINT LeftHandIndex4
													{
														OFFSET 2.403702 0.000000 0.000000
														CHANNELS 3 Xrotation Yrotation Zrotation
														End Site
														{
															OFFSET 0.000000 0.000000 0.000000
														}
													}
												}
											}
										}
										JOINT LeftHandMiddle1
										{
											OFFSET 8.563995 0.000000 -0.000000
											CHANNELS 3 Xrotation Yrotation Zrotation
											JOINT LeftHandMiddle2
											{
												OFFSET 3.861618 0.000000 0.000000
												CHANNELS 3 Xrotation Yrotation Zrotation
												JOINT LeftHandMiddle3
												{
													OFFSET 3.701603 0.000000 0.000000
													CHANNELS 3 Xrotation Yrotation Zrotation
													JOINT LeftHandMiddle4
													{
														OFFSET 2.322544 0.000000 0.000000
														CHANNELS 3 Xrotation Yrotation Zrotation
														End Site
														{
															OFFSET 0.000000 0.000000 0.000000
														}
													}
												}
											}
										}
										JOINT LeftHandRing1
										{
											OFFSET 8.426460 -0.424637 -3.286992
											CHANNELS 3 Xrotation Yrotation Zrotation
											JOINT LeftHandRing2
											{
												OFFSET 3.126408 0.000000 0.000000
												CHANNELS 3 Xrotation Yrotation Zrotation
												JOINT LeftHandRing3
												{
													OFFSET 3.085026 0.000000 0.000000
													CHANNELS 3 Xrotation Yrotation Zrotation
													JOINT LeftHandRing4
													{
														OFFSET 1.644005 0.000000 0.000000
														CHANNELS 3 Xrotation Yrotation Zrotation
														End Site
														{
															OFFSET 0.000000 0.000000 0.000000
														}
													}
												}
											}
										}
									}
								}
							}
						}
					}
					JOINT RightShoulder
					{
						OFFSET -2.196100 4.412496 0.070690
						CHANNELS 3 Xrotation Yrotation Zrotation
						JOINT RightShoulder_split
						{
							OFFSET -2.196100 4.412496 0.070690
							CHANNELS 3 Xrotation Yrotation Zrotation
							JOINT RightArm
							{
								OFFSET -8.771282 -2.981682 -0.094208
								CHANNELS 3 Xrotation Yrotation Zrotation
								JOINT RightForeArm
								{
									OFFSET -8.494598 0.000000 0.000000
									CHANNELS 3 Xrotation Yrotation Zrotation
									JOINT RightHand
									{
										OFFSET -18.483803 0.000000 0.000001
										CHANNELS 3 Xrotation Yrotation Zrotation
										JOINT RightHandThumb1
										{
											OFFSET -2.527351 -1.008072 2.575253
											CHANNELS 3 Xrotation Yrotation Zrotation
											JOINT RightHandThumb2
											{
												OFFSET -2.321518 -1.340328 1.340329
												CHANNELS 3 Xrotation Yrotation Zrotation
												JOINT RightHandThumb3
												{
													OFFSET -2.657753 -1.534454 1.534455
													CHANNELS 3 Xrotation Yrotation Zrotation
													JOINT RightHandThumb4
													{
														OFFSET -1.807510 -1.043568 1.043567
														CHANNELS 3 Xrotation Yrotation Zrotation
														End Site
														{
															OFFSET 0.000000 0.000000 0.000000
														}
													}
												}
											}
										}
										JOINT RightHandIndex1
										{
											OFFSET -8.811420 0.015533 2.887987
											CHANNELS 3 Xrotation Yrotation Zrotation
											JOINT RightHandIndex2
											{
												OFFSET -3.537502 0.000000 0.000000
												CHANNELS 3 Xrotation Yrotation Zrotation
												JOINT RightHandIndex3
												{
													OFFSET -3.356201 0.000000 0.000000
													CHANNELS 3 Xrotation Yrotation Zrotation
													JOINT RightHandIndex4
													{
														OFFSET -1.933098 0.000000 0.000000
														CHANNELS 3 Xrotation Yrotation Zrotation
														End Site
														{
															OFFSET 0.000000 0.000000 0.000000
														}
													}
												}
											}
										}
										JOINT RightHandMiddle1
										{
											OFFSET -8.178135 0.000000 0.000000
											CHANNELS 3 Xrotation Yrotation Zrotation
											JOINT RightHandMiddle2
											{
												OFFSET -3.901302 0.000000 0.000000
												CHANNELS 3 Xrotation Yrotation Zrotation
												JOINT RightHandMiddle3
												{
													OFFSET -3.909599 0.000000 0.000000
													CHANNELS 3 Xrotation Yrotation Zrotation
													JOINT RightHandMiddle4
													{
														OFFSET -2.376003 0.000000 0.000000
														CHANNELS 3 Xrotation Yrotation Zrotation
														End Site
														{
															OFFSET 0.000000 0.000000 0.000000
														}
													}
												}
											}
										}
										JOINT RightHandRing1
										{
											OFFSET -7.559013 0.014137 -2.865403
											CHANNELS 3 Xrotation Yrotation Zrotation
											JOINT RightHandRing2
											{
												OFFSET -3.449306 0.000000 0.000000
												CHANNELS 3 Xrotation Yrotation Zrotation
												JOINT RightHandRing3
												{
													OFFSET -3.362106 0.000000 0.000000
													CHANNELS 3 Xrotation Yrotation Zrotation
													JOINT RightHandRing4
													{
														OFFSET -2.076401 0.000000 0.000000
														CHANNELS 3 Xrotation Yrotation Zrotation
														End Site
														{
															OFFSET 0.000000 0.000000 0.000000
														}
													}
												}
											}
										}
									}
								}
							}
						}
					}
				}
			}
		}
	}
	JOINT LeftUpLeg
	{
		OFFSET 10.205400 -3.823500 0.155100
		CHANNELS 3 Xrotation Yrotation Zrotation
		JOINT LeftLeg
		{
			OFFSET 0.708757 -12.982077 0.567790
			CHANNELS 3 Xrotation Yrotation Zrotation
			JOINT LeftFoot
			{
				OFFSET -0.708756 -10.717838 -2.184338
				CHANNELS 3 Xrotation Yrotation Zrotation
				JOINT LeftToeBase
				{
					OFFSET 0.108149 -7.191104 7.560241
					CHANNELS 3 Xrotation Yrotation Zrotation
					JOINT LeftToe_End
					{
						OFFSET 0.070230 0.081724 4.490308
						CHANNELS 3 Xrotation Yrotation Zrotation
						End Site
						{
							OFFSET 0.000000 0.000000 0.000000
						}
					}
				}
			}
		}
	}
	JOINT RightUpLeg
	{
		OFFSET -10.205400 -3.823500 0.005500
		CHANNELS 3 Xrotation Yrotation Zrotation
		JOINT RightLeg
		{
			OFFSET -0.708756 -12.982134 0.610632
			CHANNELS 3 Xrotation Yrotation Zrotation
			JOINT RightFoot
			{
				OFFSET 0.708754 -10.717769 -1.945823
				CHANNELS 3 Xrotation Yrotation Zrotation
				JOINT RightToeBase
				{
					OFFSET -0.108140 -7.191069 7.372968
					CHANNELS 3 Xrotation Yrotation Zrotation
					JOINT RightToe_End
					{
						OFFSET -0.070227 0.081735 4.479403
						CHANNELS 3 Xrotation Yrotation Zrotation
						End Site
						{
							OFFSET 0.000000 0.000000 0.000000
						}
					}
				}
			}
		}
	}
}
MOTION
Frames: 6
Frame Time: 0.016667
0.152277 32.402447 -0.128205 1.361490 -27.045054 0.916452 3.669860 -2.013110 0.932125 1.363087 -0.820707 0.173835 0.000000 0.000000 0.000000 1.366611 -0.813814 0.178821 -1.889907 4.550432 2.461103 17.045036 24.869853 -12.698043 0.000000 0.000000 0.000000 -0.311614 3.473789 4.919136 0.000000 0.000000 0.000000 -51.541806 -1.692555 -52.291904 -0.000206 -84.594488 -0.000175 -12.268096 -17.441576 -7.415577 27.590962 19.106274 -21.055294 27.859541 42.153021 14.703683 8.091811 17.848647 9.739499 -0.000004 0.000001 -0.000003 6.438751 6.867040 -86.304624 7.312862 6.867712 -93.605291 2.157735 5.009658 -46.582966 0.000000 0.000000 -0.000001 6.436805 6.866914 -86.288423 7.314807 6.867591 -93.621512 2.157741 5.009665 -46.582939 -0.000000 -0.000001 0.000001 6.438746 6.867051 -86.304638 7.312865 6.867707 -93.605291 2.157730 5.009664 -46.582956 0.000000 -0.000001 0.000001 -1.129703 -10.661989 8.143430 0.000000 0.000000 0.000000 -61.066973 65.570417 77.632579 -0.000047 81.745876 0.000004 -15.442853 16.436770 -32.999598 35.509604 -4.573184 10.809917 66.380819 -29.908015 29.548764 25.917429 -18.540863 10.281084 0.000001 0.000006 -0.000000 5.945863 -6.875893 81.685340 8.620179 -6.745012 103.956565 2.650651 -5.464857 51.723817 -0.000000 0.000001 0.000001 5.945873 -6.875899 81.685340 8.620194 -6.745000 103.956572 2.650638 -5.464859 51.723810 -0.000002 0.000004 -0.000002 5.945868 -6.875885 81.685361 8.620186 -6.744997 103.956558 2.650643 -5.464856 51.723817 -0.000001 -0.000002 0.000003 -27.642571 24.249468 18.590052 37.758788 6.436876 10.898810 -11.720521 4.562969 -18.844765 -0.000033 0.000003 -0.000001 -0.000000 0.000000 0.000000 -16.652192 -16.142510 -13.681157 38.606517 0.975070 -7.342815 -23.078844 -5.115263 15.067098 -0.000050 0.000004 -0.000001 0.000000 0.000002 0.000000 
0.152867 32.402958 -0.128977 1.361854 -27.039520 0.910891 3.665009 -2.013117 0.931683 1.363086 -0.820712 0.173819 0.000000 0.000000 0.000000 1.366618 -0.813808 0.178804 -1.882824 4.550441 2.481605 17.052713 24.883300 -12.703482 0.000001 0.000000 -0.000000 -0.308282 3.435131 4.918969 0.000000 0.000000 0.000000 -51.567546 -1.700399 -52.299346 0.000097 -84.588444 0.000111 -12.294688 -17.380808 -7.430937 27.590964 19.106269 -21.055294 27.859539 42.153021 14.703688 8.091809 17.848638 9.739499 -0.000002 0.000005 -0.000003 6.438751 6.867040 -86.304624 7.312865 6.867710 -93.605291 2.157737 5.009661 -46.582966 0.000001 -0.000000 0.000000 6.436807 6.866915 -86.288423 7.314808 6.867594 -93.621512 2.157739 5.009666 -46.582945 0.000000 0.000001 0.000001 6.438745 6.867055 -86.304638 7.312873 6.867707 -93.605297 2.157729 5.009665 -46.582956 -0.000000 -0.000001 -0.000000 -1.127377 -10.685138 8.203391 0.000000 0.000000 0.000000 -61.032678 65.576858 77.592588 -0.000031 81.763279 0.000064 -15.337688 16.323411 -32.921744 35.509597 -4.573183 10.809921 66.380826 -29.908015 29.548764 25.917436 -18.540866 10.281088 -0.000001 0.000000 -0.000002 5.945861 -6.875894 81.685347 8.620185 -6.745011 103.956565 2.650656 -5.464854 51.723817 -0.000001 0.000001 0.000000 5.945874 -6.875898 81.685347 8.620188 -6.745007 103.956572 2.650635 -5.464857 51.723810 -0.000001 0.000001 0.000000 5.945864 -6.875891 81.685361 8.620183 -6.744994 103.956558 2.650630 -5.464851 51.723817 -0.000002 -0.000002 0.000001 -27.672780 24.284411 18.613505 37.768590 6.392776 10.903709 -11.722824 4.560233 -18.827177 -0.000043 0.000005 0.000002 0.000000 -0.000000 0.000000 -16.638742 -16.141610 -13.663105 38.589548 0.952298 -7.353906 -23.070036 -5.117577 15.079617 -0.000049 -0.000001 -0.000001 0.000000 0.000001 0.000000 
0.152819 32.403374 -0.129372 1.362219 -27.033236 0.905255 3.658393 -2.013227 0.931294 1.361890 -0.820750 0.173847 0.000000 0.000000 0.000000 1.365413 -0.813847 0.178831 -1.873933 4.545143 2.494241 17.054409 24.886836 -12.705629 -0.000000 0.000000 0.000000 -0.307947 3.431319 4.918767 0.000000 0.000000 0.000000 -51.600822 -1.706246 -52.314823 0.000144 -84.572447 0.000176 -12.351134 -17.378786 -7.461639 27.590962 19.106281 -21.055293 27.859546 42.153025 14.703688 8.091814 17.848642 9.739501 -0.000002 -0.000000 -0.000004 6.438749 6.867041 -86.304624 7.312859 6.867711 -93.605291 2.157737 5.009658 -46.582966 0.000002 0.000001 -0.000000 6.436807 6.866915 -86.288416 7.314803 6.867591 -93.621512 2.157739 5.009660 -46.582939 0.000000 -0.000000 0.000001 6.438746 6.867053 -86.304631 7.312868 6.867707 -93.605291 2.157727 5.009665 -46.582956 0.000001 0.000001 -0.000000 -1.125352 -10.703791 8.253327 0.000000 0.000000 0.000000 -60.998015 65.595907 77.553615 -0.000016 81.773190 -0.000024 -15.257927 16.188515 -32.872102 35.509597 -4.573184 10.809916 66.380826 -29.908015 29.548758 25.917436 -18.540866 10.281083 0.000001 0.000001 -0.000003 5.945863 -6.875893 81.685340 8.620186 -6.745009 103.956565 2.650650 -5.464859 51.723814 0.000002 0.000001 0.000001 5.945874 -6.875892 81.685340 8.620187 -6.745006 103.956572 2.650632 -5.464854 51.723807 -0.000003 0.000002 -0.000001 5.945867 -6.875883 81.685361 8.620179 -6.744996 103.956558 2.650636 -5.464853 51.723820 0.000000 -0.000001 0.000001 -27.697536 24.308799 18.633852 37.777606 6.358488 10.906903 -11.724727 4.558184 -18.814200 -0.000038 0.000003 0.000000 -0.000000 -0.000001 0.000000 -16.621310 -16.136149 -13.647201 38.572602 0.926188 -7.354384 -23.063952 -5.119188 15.088149 -0.000051 0.000002 0.000000 0.000000 0.000004 0.000000 
0.152832 32.403725 -0.129885 1.362592 -27.027323 0.898475 3.651691 -2.009947 0.930926 1.359633 -0.820061 0.173906 0.000000 0.000000 0.000000 1.363163 -0.813143 0.178891 -1.864814 4.541544 2.505156 17.054354 24.890951 -12.708789 -0.000000 0.000000 0.000000 -0.306416 3.435005 4.888486 0.000000 0.000000 0.000000 -51.635865 -1.710339 -52.332790 0.000130 -84.553876 0.000105 -12.412343 -17.397701 -7.494339 27.590964 19.106278 -21.055298 27.859544 42.153018 14.703683 8.091805 17.848644 9.739496 -0.000001 0.000003 0.000003 6.438753 6.867041 -86.304624 7.312863 6.867711 -93.605291 2.157738 5.009657 -46.582966 -0.000000 0.000001 -0.000001 6.436806 6.866918 -86.288423 7.314806 6.867593 -93.621512 2.157739 5.009669 -46.582945 0.000002 -0.000001 0.000001 6.438748 6.867056 -86.304638 7.312868 6.867707 -93.605297 2.157726 5.009665 -46.582959 -0.000001 -0.000000 0.000001 -1.123387 -10.721033 8.300124 0.000000 0.000000 0.000000 -60.963250 65.619847 77.514383 -0.000053 81.780689 0.000053 -15.193577 16.057433 -32.834458 35.509604 -4.573186 10.809920 66.380819 -29.908015 29.548768 25.917438 -18.540858 10.281086 0.000001 0.000000 -0.000002 5.945865 -6.875894 81.685347 8.620184 -6.745009 103.956565 2.650651 -5.464861 51.723814 -0.000002 -0.000002 0.000002 5.945874 -6.875894 81.685347 8.620189 -6.745005 103.956572 2.650634 -5.464855 51.723814 0.000002 0.000002 -0.000001 5.945868 -6.875896 81.685367 8.620187 -6.744995 103.956558 2.650635 -5.464850 51.723814 0.000001 -0.000005 0.000000 -27.730039 24.343764 18.661754 37.790501 6.311268 10.910998 -11.728724 4.555761 -18.797051 -0.000039 0.000006 0.000001 0.000000 -0.000001 0.000000 -16.602216 -16.122959 -13.631029 38.554365 0.897469 -7.347710 -23.056849 -5.119244 15.094525 -0.000050 0.000002 -0.000001 0.000000 -0.000001 0.000000 
0.152850 32.403992 -0.130532 1.362976 -27.021506 0.893690 3.644783 -2.008456 0.930862 1.357169 -0.820013 0.174018 0.000000 0.000000 0.000000 1.360707 -0.813084 0.179004 -1.855646 4.538354 2.513962 17.052542 24.893862 -12.712154 -0.000001 0.000000 -0.000000 -0.305923 3.446128 4.864914 0.000000 0.000000 0.000000 -51.651472 -1.736588 -52.386701 -0.000049 -84.533911 -0.000061 -12.479419 -17.438730 -7.531205 27.590959 19.106271 -21.055296 27.859539 42.153021 14.703683 8.091809 17.848645 9.739500 -0.000003 0.000000 -0.000006 6.438748 6.867044 -86.304624 7.312867 6.867710 -93.605284 2.157738 5.009660 -46.582966 -0.000000 0.000001 0.000001 6.436807 6.866916 -86.288423 7.314812 6.867591 -93.621512 2.157739 5.009665 -46.582942 -0.000001 -0.000001 0.000001 6.438747 6.867050 -86.304638 7.312868 6.867708 -93.605291 2.157728 5.009664 -46.582956 0.000001 0.000001 -0.000000 -1.121531 -10.736589 8.342987 0.000000 0.000000 0.000000 -60.928443 65.648493 77.475300 -0.000044 81.786133 0.000045 -15.145970 15.930496 -32.810248 35.509604 -4.573188 10.809920 66.380819 -29.908015 29.548761 25.917438 -18.540870 10.281081 -0.000003 0.000003 -0.000002 5.945864 -6.875899 81.685347 8.620179 -6.745010 103.956565 2.650653 -5.464857 51.723814 0.000001 0.000001 0.000001 5.945876 -6.875899 81.685347 8.620196 -6.745003 103.956572 2.650630 -5.464856 51.723807 0.000002 -0.000000 0.000000 5.945866 -6.875893 81.685361 8.620188 -6.744993 103.956558 2.650636 -5.464854 51.723817 0.000001 -0.000001 -0.000002 -27.760894 24.380601 18.687384 37.800466 6.263019 10.914866 -11.731070 4.552771 -18.779038 -0.000040 0.000002 0.000000 0.000000 -0.000001 0.000000 -16.585491 -16.104136 -13.620066 38.540490 0.869654 -7.334213 -23.051786 -5.118977 15.097916 -0.000048 0.000000 -0.000000 0.000000 0.000000 0.000000 
0.152812 32.404198 -0.131367 1.363369 -27.015708 0.890434 3.637550 -2.007582 0.936286 1.354472 -0.820112 0.174197 0.000000 0.000000 0.000000 1.358021 -0.813161 0.179184 -1.846725 4.535697 2.520380 17.049409 24.895133 -12.715505 -0.000000 -0.000000 -0.000000 -0.305894 3.463937 4.839992 0.000000 0.000000 0.000000 -51.668100 -1.754018 -52.440184 0.000040 -84.514131 0.000087 -12.553018 -17.501632 -7.574617 27.590969 19.106281 -21.055294 27.859541 42.153018 14.703688 8.091808 17.848644 9.739498 -0.000003 0.000003 -0.000003 6.438754 6.867040 -86.304624 7.312864 6.867713 -93.605291 2.157738 5.009659 -46.582966 0.000000 0.000000 0.000000 6.436808 6.866916 -86.288423 7.314810 6.867594 -93.621512 2.157739 5.009666 -46.582942 -0.000000 0.000001 -0.000000 6.438747 6.867057 -86.304638 7.312871 6.867708 -93.605297 2.157729 5.009668 -46.582956 -0.000000 -0.000000 -0.000000 -1.119829 -10.750221 8.380948 0.000000 0.000000 0.000000 -60.892783 65.681134 77.435801 -0.000052 81.790136 0.000011 -15.115704 15.808367 -32.800197 35.509597 -4.573188 10.809914 66.380833 -29.908015 29.548768 25.917440 -18.540866 10.281088 -0.000002 0.000001 0.000002 5.945864 -6.875892 81.685340 8.620180 -6.745007 103.956565 2.650655 -5.464857 51.723814 0.000000 0.000000 -0.000000 5.945871 -6.875893 81.685340 8.620197 -6.745001 103.956572 2.650633 -5.464854 51.723810 -0.000002 -0.000003 0.000001 5.945866 -6.875889 81.685361 8.620191 -6.744993 103.956558 2.650630 -5.464850 51.723820 -0.000004 0.000000 -0.000001 -27.792229 24.421768 18.712814 37.808536 6.210796 10.918952 -11.732177 4.549168 -18.759374 -0.000039 0.000003 0.000000 0.000000 -0.000001 0.000000 -16.571733 -16.083521 -13.612610 38.530443 0.845506 -7.318051 -23.048461 -5.118737 15.098705 -0.000048 -0.000001 -0.000001 0.000000 0.000002 0.000000 
